<svg width="23" height="23" viewBox="0 0 23 23" fill="none" xmlns="http://www.w3.org/2000/svg">
<path fill-rule="evenodd" clip-rule="evenodd" d="M7.85582 0.5H16.1058C19.9022 0.5 22.9808 3.57862 22.9808 7.375V15.625C22.9808 19.4214 19.9022 22.5 16.1058 22.5H7.85582C4.05944 22.5 0.98082 19.4214 0.98082 15.625V7.375C0.98082 3.57862 4.05944 0.5 7.85582 0.5ZM16.1058 20.4375C18.7596 20.4375 20.9183 18.2787 20.9183 15.625V7.375C20.9183 4.72125 18.7596 2.5625 16.1058 2.5625H7.85582C5.20207 2.5625 3.04332 4.72125 3.04332 7.375V15.625C3.04332 18.2787 5.20207 20.4375 7.85582 20.4375H16.1058Z" fill="white"/>
<path fill-rule="evenodd" clip-rule="evenodd" d="M6.48082 11.5C6.48082 8.46263 8.94344 6 11.9808 6C15.0182 6 17.4808 8.46263 17.4808 11.5C17.4808 14.5374 15.0182 17 11.9808 17C8.94344 17 6.48082 14.5374 6.48082 11.5ZM8.54332 11.5C8.54332 13.3948 10.0861 14.9375 11.9808 14.9375C13.8756 14.9375 15.4183 13.3948 15.4183 11.5C15.4183 9.60388 13.8756 8.0625 11.9808 8.0625C10.0861 8.0625 8.54332 9.60388 8.54332 11.5Z" fill="white"/>
<circle cx="17.8933" cy="5.58761" r="0.732875" fill="white"/>
</svg>
