<svg width="37" height="36" viewBox="0 0 37 36" fill="none" xmlns="http://www.w3.org/2000/svg">
<path d="M12.4879 16.5499C11.7482 16.5524 11.0216 16.7453 10.3779 17.11C11.2841 14.7645 12.787 12.6962 14.7379 11.1099C14.8496 11.018 14.942 10.905 15.0099 10.7774C15.0779 10.6497 15.12 10.5099 15.1339 10.366C15.1479 10.2221 15.1333 10.0768 15.0911 9.93851C15.0489 9.80021 14.9799 9.67157 14.8879 9.55995C14.796 9.44833 14.683 9.3559 14.5553 9.28795C14.4277 9.22 14.2879 9.17786 14.144 9.16393C14.0001 9.15 13.8548 9.16456 13.7165 9.20677C13.5782 9.24899 13.4496 9.31802 13.3379 9.40995C9.33793 12.6599 7.55793 17.16 7.55793 19.95C7.56482 20.9364 7.8588 21.8996 8.40397 22.7218C8.94914 23.544 9.72191 24.1896 10.6279 24.5799C11.2143 24.864 11.8564 25.0143 12.5079 25.0199C13.0814 25.0478 13.6545 24.9589 14.1926 24.7587C14.7307 24.5584 15.2225 24.251 15.6382 23.855C16.0539 23.459 16.3849 22.9827 16.611 22.455C16.8372 21.9272 16.9538 21.3591 16.9538 20.7849C16.9538 20.2108 16.8372 19.6427 16.611 19.1149C16.3849 18.5872 16.0539 18.1109 15.6382 17.7149C15.2225 17.3189 14.7307 17.0115 14.1926 16.8112C13.6545 16.611 13.0814 16.5221 12.5079 16.5499H12.4879Z" fill="#FF4D00"/>
<path d="M23.6279 16.55C22.8881 16.5516 22.1612 16.7445 21.5179 17.11C22.4237 14.767 23.9227 12.6995 25.8679 11.11C25.9897 11.0223 26.0922 10.9105 26.1691 10.7816C26.2461 10.6528 26.2959 10.5095 26.3154 10.3607C26.3349 10.2119 26.3238 10.0607 26.2826 9.91633C26.2415 9.77198 26.1713 9.63758 26.0763 9.52139C25.9813 9.40519 25.8635 9.30967 25.7302 9.2407C25.5969 9.17173 25.4509 9.13077 25.3012 9.12034C25.1515 9.1099 25.0012 9.13022 24.8596 9.18004C24.718 9.22986 24.5881 9.30812 24.4779 9.41002C20.4779 12.66 18.6979 17.16 18.6979 19.95C18.7027 20.9253 18.9881 21.8787 19.5201 22.6962C20.052 23.5136 20.8081 24.1607 21.6979 24.56C22.2991 24.8524 22.9594 25.0029 23.6279 25C24.2014 25.0279 24.7745 24.939 25.3126 24.7388C25.8507 24.5385 26.3425 24.2311 26.7582 23.8351C27.1739 23.4391 27.5049 22.9628 27.731 22.435C27.9572 21.9073 28.0738 21.3392 28.0738 20.765C28.0738 20.1909 27.9572 19.6227 27.731 19.095C27.5049 18.5673 27.1739 18.091 26.7582 17.695C26.3425 17.299 25.8507 16.9915 25.3126 16.7913C24.7745 16.591 24.2014 16.5021 23.6279 16.53V16.55Z" fill="#FF4D00"/>
</svg>
