<svg width="23" height="19" viewBox="0 0 23 19" fill="none" xmlns="http://www.w3.org/2000/svg">
<path d="M22.9808 2.61613C22.1627 2.975 21.2909 3.21288 20.3821 3.32838C21.3171 2.77013 22.0307 1.89287 22.3662 0.8355C21.4944 1.35525 20.5319 1.72238 19.5062 1.92725C18.6784 1.04588 17.4987 0.5 16.2117 0.5C13.7147 0.5 11.7044 2.52675 11.7044 5.01137C11.7044 5.36888 11.7347 5.71263 11.8089 6.03988C8.05932 5.857 4.74144 4.05988 2.51257 1.32225C2.12344 1.99738 1.89519 2.77012 1.89519 3.602C1.89519 5.164 2.69957 6.54862 3.89857 7.35025C3.17394 7.3365 2.46307 7.12613 1.86082 6.79475C1.86082 6.8085 1.86082 6.82638 1.86082 6.84425C1.86082 9.036 3.4242 10.8565 5.47432 11.2759C5.10719 11.3763 4.70707 11.4244 4.29182 11.4244C4.00307 11.4244 3.71157 11.4079 3.43794 11.3474C4.02232 13.1335 5.68057 14.4466 7.65232 14.4893C6.11782 15.6896 4.16944 16.4129 2.06019 16.4129C1.69032 16.4129 1.33557 16.3964 0.98082 16.351C2.97869 17.6394 5.34645 18.375 7.89982 18.375C16.1993 18.375 20.7368 11.5 20.7368 5.54075C20.7368 5.34137 20.7299 5.14887 20.7203 4.95775C21.6154 4.3225 22.3676 3.52913 22.9808 2.61613Z" fill="white"/>
</svg>
